<?xml version="1.0" encoding="iso-8859-1"?>
<!-- Generator: Adobe Illustrator 19.0.0, SVG Export Plug-In . SVG Version: 6.00 Build 0)  -->
<svg xmlns="http://www.w3.org/2000/svg" xmlns:xlink="http://www.w3.org/1999/xlink" version="1.1" id="Layer_1" x="0px" y="0px" viewBox="0 0 511.999 511.999" style="enable-background:new 0 0 511.999 511.999;" xml:space="preserve">
<path style="fill:#68594C;" d="M376.517,434.164h109.162c10.038,0,18.176-8.14,18.176-18.178v-3.029  c0-10.038-8.138-18.178-18.176-18.178H194.985l-25.049-14.995c-1.105-0.87-2.316-1.604-3.618-2.17l-0.029-0.015l-0.002,0.002  c-2.009-0.868-4.219-1.353-6.547-1.353H24.691c-9.139,0-16.547,7.41-16.547,16.547v24.82c0,9.137,7.408,16.547,16.547,16.547  h189.849h19.657h115.535"/>
<path style="fill:#FF9F34;" d="M241.34,107.44c0-67.472-89.791,4.061-150.463-13.865c-60.67-17.926-66.186,19.304-66.186,19.304  v263.368h135.045c2.329,0,4.539,0.485,6.547,1.353l0.002-0.002l0.029,0.015c1.302,0.566,2.513,1.3,3.618,2.17l25.049,14.995h290.695  c19.744-98.674-32.152-139.871-109.37-139.871c-68.142,0-121.122-55.635-132.639-120.957"/>
<path style="fill:#56463A;" d="M38.188,417.617v-24.82c0-9.137,7.408-16.547,16.547-16.547H24.691  c-9.139,0-16.547,7.41-16.547,16.547v24.82c0,9.137,7.408,16.547,16.547,16.547h30.043  C45.596,434.164,38.188,426.753,38.188,417.617z"/>
<path style="fill:#F28920;" d="M77.734,90.359c-48.347-9.156-53.043,22.521-53.043,22.521v263.368h30.043V112.88  C54.735,112.88,57.269,95.818,77.734,90.359z"/>
<path style="fill:#A67A4B;" d="M124.791,300.185c-21.239-33.919-57.864-57.221-100.1-60.129v136.193h119.368  c0.161-2.621,0.252-5.264,0.252-7.928c0-15.427-2.717-30.216-7.699-43.923"/>
<path style="fill:#996B42;" d="M24.691,240.055v136.193h30.043V245.777C45.158,242.731,35.096,240.772,24.691,240.055z"/>
<circle style="fill:#D6D6D6;" cx="191.682" cy="123.738" r="16.299"/>
<path style="fill:#A67A4B;" d="M376.31,254.908c-0.365,0-0.721-0.015-1.084-0.02c-21.743,23.587-35.031,55.088-35.031,89.699  c0,17.766,3.507,34.713,9.858,50.191h135.626C505.423,296.104,453.527,254.908,376.31,254.908z"/>
<path style="fill:#996B42;" d="M406.706,257.309c-9.57-1.611-19.742-2.401-30.396-2.401c-0.365,0-0.721-0.015-1.084-0.02  c-21.743,23.587-35.031,55.088-35.031,89.699c0,17.766,3.507,34.713,9.858,50.191h30.407c-6.35-15.478-9.858-32.424-9.858-50.191  C370.602,311.147,386.049,280.61,406.706,257.309z"/>
<path style="fill:#A67A4B;" d="M132.789,95.01c-13.554,1.992-26.963,2.365-39.273-0.719c-0.881-0.218-1.76-0.454-2.639-0.715  c-60.67-17.926-66.186,19.304-66.186,19.304v17.058C114.62,165.32,130.524,106.897,132.789,95.01z"/>
<path style="fill:#996B42;" d="M54.735,112.88c0,0,2.534-17.063,22.999-22.521c-0.465-0.088-0.918-0.165-1.374-0.246  c-0.312-0.054-0.628-0.113-0.936-0.165c-0.43-0.072-0.851-0.135-1.275-0.201c-0.328-0.05-0.658-0.104-0.982-0.151  c-0.409-0.06-0.81-0.112-1.212-0.164c-0.328-0.042-0.656-0.087-0.978-0.126c-0.392-0.048-0.779-0.089-1.164-0.13  c-0.321-0.035-0.642-0.069-0.958-0.101c-0.38-0.037-0.753-0.068-1.124-0.1c-0.314-0.026-0.627-0.052-0.935-0.074  c-0.365-0.027-0.725-0.05-1.083-0.071c-0.306-0.018-0.611-0.035-0.913-0.049c-0.351-0.016-0.7-0.03-1.046-0.041  c-0.296-0.011-0.59-0.017-0.882-0.023c-0.341-0.007-0.682-0.013-1.017-0.015c-0.286-0.002-0.566,0-0.846,0.002  c-0.332,0.002-0.663,0.003-0.989,0.011c-0.273,0.005-0.54,0.016-0.809,0.025c-0.324,0.011-0.649,0.021-0.968,0.036  c-0.258,0.013-0.51,0.03-0.766,0.047c-0.317,0.02-0.636,0.037-0.948,0.062c-0.235,0.02-0.462,0.042-0.692,0.064  c-1.167,0.106-2.291,0.244-3.374,0.413c-0.219,0.035-0.442,0.067-0.658,0.103c-0.282,0.048-0.556,0.102-0.833,0.153  c-0.218,0.041-0.439,0.08-0.653,0.124c-0.268,0.054-0.529,0.113-0.792,0.17c-0.216,0.048-0.432,0.096-0.645,0.146  c-0.254,0.061-0.504,0.124-0.753,0.187c-0.21,0.054-0.421,0.107-0.628,0.164c-0.244,0.066-0.483,0.135-0.723,0.204  c-0.202,0.06-0.403,0.118-0.603,0.18c-0.235,0.072-0.466,0.147-0.696,0.22c-0.195,0.065-0.388,0.129-0.58,0.197  c-0.224,0.077-0.446,0.155-0.667,0.237c-0.187,0.068-0.371,0.139-0.556,0.208c-0.216,0.084-0.431,0.166-0.643,0.252  c-0.179,0.073-0.354,0.148-0.53,0.222c-0.207,0.088-0.416,0.176-0.618,0.267c-0.17,0.076-0.337,0.154-0.504,0.231  c-0.201,0.094-0.402,0.187-0.598,0.283c-0.159,0.077-0.313,0.159-0.469,0.237c-0.197,0.101-0.394,0.2-0.585,0.301  c-0.138,0.073-0.269,0.149-0.403,0.223c-0.463,0.255-0.912,0.516-1.345,0.783c-0.059,0.036-0.117,0.07-0.175,0.106  c-0.18,0.113-0.354,0.228-0.53,0.342c-0.129,0.085-0.263,0.168-0.39,0.254c-0.166,0.113-0.328,0.227-0.49,0.34  c-0.129,0.091-0.261,0.181-0.387,0.274c-0.156,0.113-0.307,0.229-0.46,0.343c-0.126,0.094-0.252,0.189-0.376,0.286  c-0.146,0.113-0.288,0.228-0.43,0.342c-0.123,0.1-0.246,0.2-0.367,0.3c-0.138,0.114-0.271,0.23-0.405,0.345  c-0.116,0.101-0.232,0.202-0.345,0.303c-0.131,0.116-0.26,0.235-0.389,0.352c-0.11,0.103-0.219,0.205-0.328,0.308  c-0.123,0.117-0.245,0.236-0.365,0.353c-0.105,0.104-0.208,0.208-0.311,0.313c-0.116,0.118-0.233,0.238-0.345,0.356  c-0.1,0.104-0.197,0.21-0.293,0.314c-0.11,0.118-0.22,0.239-0.327,0.358c-0.094,0.104-0.185,0.21-0.276,0.314  c-0.104,0.121-0.208,0.241-0.309,0.362c-0.087,0.103-0.168,0.204-0.252,0.307c-0.1,0.122-0.202,0.245-0.296,0.366  c-0.078,0.099-0.152,0.198-0.227,0.294c-0.195,0.254-0.383,0.507-0.564,0.759c-0.063,0.087-0.127,0.174-0.189,0.261  c-0.084,0.119-0.163,0.24-0.245,0.358c-0.068,0.103-0.141,0.205-0.208,0.307c-0.077,0.117-0.152,0.235-0.227,0.352  c-0.064,0.102-0.131,0.204-0.195,0.305c-0.072,0.116-0.14,0.23-0.21,0.344c-0.062,0.103-0.124,0.204-0.185,0.306  c-0.066,0.113-0.129,0.224-0.192,0.336c-0.059,0.102-0.116,0.204-0.173,0.304c-0.06,0.11-0.118,0.217-0.177,0.326  c-0.054,0.1-0.108,0.2-0.159,0.299c-0.056,0.109-0.112,0.214-0.165,0.321c-0.049,0.097-0.097,0.193-0.144,0.289  c-0.052,0.104-0.102,0.206-0.151,0.309c-0.048,0.099-0.092,0.195-0.137,0.292c-0.047,0.098-0.091,0.195-0.135,0.291  c-0.043,0.097-0.085,0.19-0.126,0.285c-0.04,0.094-0.083,0.189-0.122,0.282c-0.04,0.094-0.078,0.187-0.117,0.28  c-0.035,0.087-0.072,0.175-0.106,0.261c-0.04,0.099-0.076,0.194-0.113,0.29c-0.03,0.077-0.062,0.155-0.09,0.23  c-0.04,0.11-0.078,0.214-0.117,0.32c-0.04,0.11-0.079,0.218-0.116,0.326c-0.036,0.103-0.072,0.206-0.106,0.305  c-0.023,0.072-0.045,0.139-0.067,0.207c-0.026,0.079-0.052,0.16-0.076,0.237c-0.022,0.068-0.041,0.131-0.061,0.198  c-0.023,0.072-0.045,0.144-0.065,0.212c-0.018,0.062-0.035,0.121-0.052,0.18c-0.018,0.068-0.039,0.137-0.058,0.202  c-0.015,0.055-0.029,0.109-0.043,0.161c-0.017,0.062-0.033,0.123-0.048,0.181c-0.014,0.051-0.025,0.1-0.038,0.148  c-0.013,0.053-0.026,0.106-0.038,0.156c-0.012,0.048-0.023,0.093-0.033,0.137c-0.011,0.047-0.022,0.091-0.03,0.134  c-0.009,0.038-0.017,0.076-0.025,0.111c-0.009,0.043-0.017,0.084-0.026,0.123c-0.007,0.028-0.013,0.056-0.017,0.081  c-0.009,0.042-0.016,0.078-0.023,0.115c-0.002,0.016-0.007,0.034-0.01,0.049c-0.008,0.039-0.014,0.072-0.018,0.101  c-0.001,0.007-0.002,0.014-0.004,0.021c-0.005,0.031-0.009,0.056-0.012,0.073l-0.001,0.002c-0.002,0.017-0.004,0.026-0.004,0.026  v17.058c11.108,4.37,21.082,7.304,30.043,9.076V112.88H54.735z"/>
<g>
	<path style="fill:#231F20;" d="M495.127,388.395c7.342-43.887,0.849-78.592-19.352-103.234   c-20.592-25.12-54.987-38.397-99.467-38.397l-0.988-0.018c-0.031-0.001-0.064-0.001-0.096-0.001c-0.029,0-0.058,0.004-0.087,0.004   c-16.759-0.172-32.875-4.018-47.656-10.911l3.094-3.991c2.755-3.554,2.108-8.671-1.446-11.427   c-3.553-2.754-8.67-2.107-11.427,1.446l-4.657,6.007c-7.668-4.927-14.853-10.723-21.431-17.285l6.537-4.413   c3.729-2.516,4.711-7.578,2.194-11.306c-2.517-3.728-7.58-4.711-11.306-2.194l-8.328,5.623   c-6.033-7.676-11.349-16.098-15.807-25.152l8.468-3.487c4.159-1.712,6.143-6.472,4.429-10.631   c-1.712-4.16-6.474-6.144-10.631-4.429l-8.639,3.558c-2.96-8.165-5.27-16.727-6.838-25.62c-0.782-4.429-5.01-7.391-9.434-6.607   c-4.43,0.781-7.388,5.004-6.607,9.434c1.748,9.915,4.404,19.617,7.885,28.966l-8.015,3.301c-4.159,1.712-6.143,6.472-4.429,10.631   c1.294,3.145,4.331,5.045,7.534,5.045c1.033,0,2.084-0.199,3.098-0.616l8.24-3.393c4.857,9.936,10.692,19.337,17.399,28.011   l-6.688,4.515c-3.729,2.516-4.711,7.578-2.194,11.306c1.573,2.33,4.142,3.589,6.758,3.589c1.567,0,3.152-0.452,4.549-1.395   l8.268-5.582c1.658,1.733,3.351,3.43,5.087,5.082c6.259,5.955,12.941,11.257,19.952,15.885l-6.362,8.207   c-2.755,3.554-2.108,8.671,1.446,11.427c1.484,1.151,3.241,1.707,4.985,1.707c2.43,0,4.837-1.084,6.443-3.153l7.719-9.956   c13.171,6.603,27.214,10.977,41.647,12.932c-17.454,23.924-26.922,52.755-26.922,82.715c0,14.4,2.161,28.494,6.417,42.047H197.236   l-22.716-13.598c-1.469-1.103-3.048-2.033-4.699-2.773c-0.036-0.016-0.071-0.035-0.106-0.051c0,0,0,0-0.001,0   s-0.002-0.001-0.003-0.001c-0.099-0.046-0.199-0.087-0.299-0.128c-0.048-0.02-0.096-0.042-0.143-0.062   c-0.325-0.136-0.659-0.237-0.988-0.358c-2.74-1.015-5.602-1.558-8.543-1.558h-7.283c-0.025-15.966-2.777-31.607-8.187-46.489   c-1.535-4.227-6.203-6.41-10.435-4.872c-4.228,1.537-6.409,6.209-4.872,10.435c4.759,13.095,7.183,26.863,7.209,40.925h-25.784   H83.238H56.091H32.835v-14.755v-27.147v-27.147v-17.959c3.169,0.553,6.305,1.281,9.382,2.184c4.32,1.266,8.841-1.209,10.106-5.525   c1.265-4.316-1.209-8.841-5.525-10.106c-4.566-1.339-9.24-2.351-13.962-3.04v-15.507c34.834,4.995,66.178,25.261,85.053,55.403   c2.386,3.813,7.411,4.969,11.225,2.58c3.813-2.387,4.967-7.412,2.58-11.225c-21.836-34.874-58.386-58.092-98.858-63.187v-91.118   c15.525,5.153,29.746,7.76,42.397,7.761c0.003,0,0.003,0,0.007,0c45.307,0,59.882-32.353,64.171-47.119   c12.137-2.129,24.188-5.306,35.611-8.319c22.555-5.95,43.862-11.568,52.465-4.941c3.788,2.919,5.71,9.143,5.71,18.5   c0,4.499,3.645,8.144,8.144,8.144c4.499,0,8.144-3.645,8.144-8.144c0-14.881-3.944-25.154-12.058-31.404   c-14.954-11.519-38.869-5.209-66.561,2.095c-16.818,4.437-35.109,9.262-52.194,10.138c-0.009,0-0.017,0-0.026,0.001   c-0.774,0.04-1.546,0.07-2.315,0.093c-0.056,0.001-0.112,0.003-0.168,0.005c-0.749,0.022-1.496,0.034-2.24,0.038   c-0.05,0-0.1,0.001-0.15,0.001c-0.595,0.002-1.187-0.005-1.778-0.014c-0.243-0.003-0.489-0.004-0.73-0.01   c-0.456-0.011-0.909-0.029-1.362-0.047c-0.37-0.014-0.743-0.026-1.109-0.045c-0.311-0.015-0.618-0.038-0.926-0.058   c-0.502-0.031-1.004-0.062-1.5-0.103c-0.172-0.014-0.341-0.031-0.511-0.047c-0.617-0.054-1.232-0.112-1.838-0.18   c-0.046-0.005-0.09-0.012-0.135-0.016c-2.946-0.338-5.754-0.838-8.406-1.503c-0.76-0.189-1.521-0.391-2.292-0.62   c-1.529-0.452-3.038-0.871-4.531-1.265c-0.624-0.165-1.235-0.306-1.853-0.462c-0.846-0.211-1.694-0.427-2.528-0.619   c-0.766-0.177-1.517-0.331-2.272-0.492c-0.661-0.14-1.327-0.286-1.981-0.414c-0.81-0.159-1.607-0.299-2.404-0.438   c-0.584-0.102-1.168-0.206-1.745-0.298c-0.81-0.129-1.609-0.242-2.405-0.351c-0.551-0.075-1.1-0.148-1.644-0.214   c-0.789-0.094-1.571-0.178-2.347-0.252c-0.534-0.051-1.065-0.097-1.592-0.138c-0.764-0.06-1.525-0.113-2.275-0.152   c-0.509-0.026-1.011-0.045-1.513-0.061c-0.762-0.026-1.521-0.048-2.27-0.052c-0.13,0-0.267-0.009-0.397-0.009   c-0.383,0-0.75,0.016-1.127,0.023c-2.487,0.036-4.885,0.197-7.197,0.481c-0.042,0.005-0.085,0.01-0.127,0.015   c-7.555,0.944-14.184,3.193-19.821,6.791c-4.25,2.714-7.42,5.848-9.784,8.935c-3.882,5.003-5.924,10.247-6.635,14.294   c-0.051,0.268-0.085,0.476-0.103,0.596c-0.059,0.395-0.088,0.794-0.088,1.194v17.058v110.116v31.855v27.147v27.147v27.147v16.14   C6.923,372.864,0,382.034,0,392.795v24.82c0,13.615,11.076,24.691,24.691,24.691h325.041c4.499,0,8.144-3.645,8.144-8.144   s-3.645-8.144-8.144-8.144H24.691c-4.634,0-8.403-3.77-8.403-8.403v-24.82c0-4.634,3.77-8.403,8.403-8.403h4.25h27.147h27.147   h27.147h33.676h15.678c1.149,0,2.265,0.231,3.318,0.686c0.025,0.011,0.052,0.022,0.077,0.033c0.615,0.274,1.209,0.634,1.765,1.072   c0.15,0.117,0.312,0.216,0.469,0.323c0.129,0.088,0.251,0.186,0.384,0.266l25.049,14.995c1.264,0.756,2.71,1.155,4.184,1.155   h155.069H485.68c5.532,0,10.031,4.502,10.031,10.034v3.029c0,5.533-4.501,10.034-10.031,10.034H376.517   c-4.499,0-8.144,3.645-8.144,8.144s3.645,8.144,8.144,8.144h109.162c14.513,0,26.32-11.808,26.32-26.322v-3.029   C512,401.772,504.985,392.2,495.127,388.395z M75.233,133.029c-12.254-0.001-26.496-2.93-42.398-8.714v-10.609   c0.44-1.775,2.426-8.001,9.378-12.299c0.546-0.338,1.117-0.649,1.702-0.949c0.139-0.072,0.279-0.142,0.421-0.213   C44.875,99.98,45.43,99.73,46,99.497c0.194-0.079,0.4-0.154,0.599-0.23c0.442-0.169,0.894-0.33,1.353-0.482   c0.21-0.069,0.413-0.141,0.628-0.207c0.616-0.189,1.248-0.362,1.894-0.52c0.207-0.051,0.421-0.098,0.633-0.146   c0.586-0.132,1.183-0.255,1.793-0.362c0.136-0.024,0.266-0.051,0.403-0.074c0.788-0.13,1.594-0.242,2.42-0.331   c0.071-0.008,0.144-0.013,0.215-0.021c0.806-0.084,1.629-0.149,2.47-0.194c0.065-0.003,0.13-0.008,0.197-0.011   c8.116-0.404,17.848,0.994,28.9,4.168c0.354,0.102,0.698,0.191,1.054,0.296c0.004,0.001,0.008,0.002,0.012,0.003   c0.971,0.287,1.948,0.548,2.93,0.795c0.012,0.003,0.025,0.007,0.037,0.01c0.073,0.018,0.148,0.034,0.219,0.051   c9.55,2.365,19.545,2.86,29.669,2.195C116.167,116.773,103.808,133.031,75.233,133.029z M355.642,386.634   c-4.847-13.458-7.303-27.576-7.303-42.047c0-30.092,10.799-58.896,30.488-81.513c0.18,0.002,0.362,0.002,0.542,0.004   c0.624,0.01,1.243,0.024,1.862,0.039c0.577,0.014,1.153,0.028,1.725,0.047c0.609,0.021,1.214,0.046,1.819,0.072   c0.573,0.025,1.147,0.049,1.716,0.079c0.597,0.032,1.189,0.067,1.782,0.103c0.566,0.035,1.132,0.071,1.693,0.111   c0.586,0.041,1.168,0.088,1.749,0.136c0.558,0.046,1.116,0.091,1.67,0.142c0.573,0.052,1.143,0.109,1.714,0.167   c0.553,0.056,1.104,0.113,1.654,0.175c0.56,0.063,1.118,0.129,1.673,0.198c0.546,0.067,1.09,0.136,1.632,0.207   c0.548,0.073,1.094,0.149,1.638,0.227c0.541,0.078,1.08,0.157,1.617,0.241c0.532,0.083,1.062,0.168,1.59,0.255   c0.538,0.089,1.073,0.181,1.605,0.275c0.519,0.092,1.036,0.187,1.551,0.285c0.53,0.1,1.058,0.203,1.583,0.308   c0.506,0.102,1.011,0.206,1.512,0.313c0.523,0.112,1.045,0.226,1.564,0.343c0.493,0.111,0.984,0.225,1.471,0.34   c0.518,0.124,1.033,0.25,1.546,0.379c0.478,0.119,0.954,0.241,1.427,0.366c0.513,0.136,1.022,0.275,1.529,0.415   c0.464,0.129,0.926,0.258,1.386,0.392c0.506,0.147,1.008,0.299,1.508,0.452c0.451,0.137,0.9,0.276,1.346,0.418   c0.498,0.159,0.991,0.321,1.483,0.486c0.439,0.147,0.876,0.293,1.311,0.444c0.491,0.171,0.976,0.346,1.461,0.522   c0.425,0.154,0.848,0.308,1.268,0.468c0.484,0.184,0.963,0.372,1.442,0.561c0.409,0.162,0.82,0.324,1.225,0.49   c0.478,0.195,0.949,0.397,1.42,0.599c0.396,0.169,0.793,0.339,1.185,0.513c0.47,0.208,0.933,0.424,1.396,0.639   c0.382,0.177,0.766,0.353,1.142,0.534c0.463,0.223,0.919,0.451,1.376,0.679c0.367,0.184,0.736,0.366,1.099,0.554   c0.457,0.237,0.908,0.48,1.357,0.723c0.351,0.189,0.705,0.377,1.051,0.57c0.45,0.251,0.893,0.508,1.336,0.766   c0.337,0.195,0.675,0.389,1.008,0.587c0.446,0.267,0.884,0.541,1.322,0.814c0.318,0.199,0.64,0.394,0.953,0.596   c0.441,0.283,0.873,0.574,1.305,0.865c0.302,0.202,0.607,0.402,0.905,0.607c0.435,0.301,0.861,0.609,1.288,0.917   c0.285,0.205,0.573,0.407,0.855,0.615c0.432,0.319,0.854,0.648,1.277,0.975c0.266,0.205,0.535,0.407,0.797,0.615   c0.429,0.341,0.848,0.691,1.267,1.039c0.245,0.204,0.496,0.404,0.738,0.61c0.431,0.367,0.85,0.744,1.272,1.12   c0.22,0.197,0.446,0.39,0.663,0.589c0.443,0.405,0.875,0.82,1.306,1.235c0.185,0.178,0.376,0.351,0.558,0.53   c0.468,0.459,0.924,0.928,1.378,1.4c0.138,0.143,0.281,0.281,0.418,0.426c0.559,0.589,1.105,1.188,1.643,1.794   c0.026,0.029,0.053,0.058,0.079,0.087c0.567,0.643,1.123,1.294,1.666,1.957c12.381,15.105,18.594,35.182,18.592,59.944   c0,3.229-0.106,6.539-0.318,9.928c-0.424,6.777-1.271,13.87-2.541,21.275L355.642,386.634L355.642,386.634z"/>
	<path style="fill:#231F20;" d="M104.647,354.183c0.688,3.959,4.129,6.75,8.014,6.75c0.464,0,0.933-0.039,1.405-0.122   c4.432-0.77,7.398-4.988,6.628-9.419c-1.682-9.675-4.672-19.061-8.884-27.894c-1.936-4.059-6.797-5.782-10.857-3.845   c-4.059,1.935-5.781,6.797-3.845,10.857C100.682,338.003,103.219,345.968,104.647,354.183z"/>
	<path style="fill:#231F20;" d="M73.511,279.875c-3.78-2.437-8.82-1.342-11.255,2.439c-2.435,3.781-1.343,8.821,2.439,11.255   c6.952,4.476,13.265,9.927,18.762,16.201c1.61,1.836,3.864,2.777,6.129,2.777c1.906,0,3.82-0.665,5.364-2.019   c3.383-2.965,3.721-8.111,0.757-11.493C89.209,291.618,81.741,285.173,73.511,279.875z"/>
	<path style="fill:#231F20;" d="M191.678,99.296c-13.477,0-24.441,10.964-24.441,24.441c0,13.478,10.964,24.444,24.441,24.444   c13.478,0,24.444-10.965,24.444-24.444C216.12,110.26,205.156,99.296,191.678,99.296z M191.678,131.892   c-4.496,0-8.153-3.658-8.153-8.155c0-4.496,3.657-8.153,8.153-8.153c4.497,0,8.155,3.657,8.155,8.153   C199.832,128.233,196.174,131.892,191.678,131.892z"/>
</g>
<g>
</g>
<g>
</g>
<g>
</g>
<g>
</g>
<g>
</g>
<g>
</g>
<g>
</g>
<g>
</g>
<g>
</g>
<g>
</g>
<g>
</g>
<g>
</g>
<g>
</g>
<g>
</g>
<g>
</g>
</svg>
