<?xml version="1.0" encoding="utf-8"?>
<!-- Generator: Adobe Illustrator 16.0.0, SVG Export Plug-In . SVG Version: 6.00 Build 0)  -->
<!DOCTYPE svg PUBLIC "-//W3C//DTD SVG 1.1//EN" "http://www.w3.org/Graphics/SVG/1.1/DTD/svg11.dtd">
<svg version="1.1" id="icons" xmlns="http://www.w3.org/2000/svg" xmlns:xlink="http://www.w3.org/1999/xlink" x="0px" y="0px"
	 width="64px" height="64px" viewBox="0 0 64 64" enable-background="new 0 0 64 64" xml:space="preserve">
<g>
	<g>
		<path fill="#545C66" d="M37.995,34.99h0.01v5c0,1.1,0.9,2,2,2h20c1.1,0,2-0.9,2-2v8l-2,5h-3h-4h-14h-3.01l-3.99-6.98V46v-5.83
			c0.01-0.05,0.01-0.11,0.01-0.16s0-0.1-0.01-0.149V29.01v-0.22c0.1-1.01,0.96-1.79,1.99-1.79v-0.01c2.14,0,3.899,1.68,4,3.81V34.99
			z"/>
	</g>
	<g>
		<path fill="#656D78" d="M62.005,23.84v0.311c-0.08,1.59-1.38,2.84-2.99,2.84c-0.83,0-1.58-0.33-2.12-0.88
			c-0.55-0.54-0.88-1.29-0.88-2.12s0.33-1.57,0.88-2.12c0.54-0.54,1.29-0.88,2.12-0.88s1.58,0.34,2.12,0.88
			C61.655,22.39,61.975,23.07,62.005,23.84z"/>
	</g>
	<g>
		<polygon fill="#434A54" points="60.005,52.99 60.005,62 55.005,62 57.005,52.99 		"/>
	</g>
	<g>
		<polygon fill="#353B44" points="57.005,52.99 55.005,62 51.005,62 53.005,52.99 		"/>
	</g>
	<g>
		<path fill="#545C66" d="M59.995,15.99c1.109,0,2.01,0.899,2.01,2.01v5.84c-0.03-0.77-0.35-1.45-0.87-1.97
			c-0.54-0.54-1.29-0.88-2.12-0.88s-1.58,0.34-2.12,0.88c-0.55,0.55-0.88,1.29-0.88,2.12h-0.01v-6.2c0.1-1.01,0.96-1.79,1.99-1.79
			v-0.01H59.995z"/>
	</g>
	<g>
		<path fill="#656D78" d="M55.125,21.87c0.54,0.55,0.88,1.29,0.88,2.12c0,1.66-1.34,3-3,3c-0.82,0-1.58-0.33-2.12-0.88
			c-0.54-0.54-0.88-1.29-0.88-2.12s0.34-1.57,0.88-2.12c0.54-0.54,1.3-0.88,2.12-0.88C53.835,20.99,54.585,21.33,55.125,21.87z"/>
	</g>
	<g>
		<path fill="#545C66" d="M56.005,17.79v6.2c0-0.83-0.34-1.57-0.88-2.12c-0.54-0.54-1.29-0.88-2.12-0.88
			c-0.82,0-1.58,0.34-2.12,0.88c-0.54,0.55-0.88,1.29-0.88,2.12v-12.2c0.1-1.01,0.96-1.8,1.99-1.8V9.98h2
			c1.109,0,2.01,0.899,2.01,2.01V17.79z"/>
	</g>
	<g>
		<polygon fill="#434A54" points="53.005,52.99 51.005,62 41.005,62 39.005,52.99 		"/>
	</g>
	<g>
		<path fill="#656D78" d="M50.005,23.99c0,1.66-1.34,3-3,3c-0.83,0-1.58-0.33-2.12-0.88c-0.54-0.54-0.88-1.29-0.88-2.12
			s0.34-1.57,0.88-2.12c0.54-0.54,1.29-0.88,2.12-0.88s1.58,0.34,2.12,0.88C49.665,22.42,50.005,23.16,50.005,23.99z"/>
	</g>
	<g>
		<path fill="#656D78" d="M43.115,21.87c0.55,0.55,0.88,1.29,0.88,2.12c0,1.66-1.34,3-3,3c-0.83,0-1.57-0.33-2.12-0.88
			c-0.54-0.54-0.88-1.29-0.88-2.12s0.34-1.57,0.88-2.12c0.55-0.54,1.29-0.88,2.12-0.88S42.575,21.33,43.115,21.87z"/>
	</g>
	<g>
		<path fill="#656D78" d="M60.005,41.99h-20c-1.1,0-2-0.9-2-2v-5c0-1.101,0.9-2,2-2h20c1.1,0,2,0.899,2,2v5
			C62.005,41.09,61.104,41.99,60.005,41.99z"/>
	</g>
	<g>
		<path fill="#545C66" d="M50.005,11.79v12.2c0-0.83-0.34-1.57-0.88-2.12c-0.54-0.54-1.29-0.88-2.12-0.88s-1.58,0.34-2.12,0.88
			c-0.54,0.55-0.88,1.29-0.88,2.12v-12v-4h-0.01c0-1.101,0.899-2,2-2V5.98h2c1.109,0,2.01,0.899,2.01,2.01V11.79z"/>
	</g>
	<g>
		<path fill="#545C66" d="M62.005,24.15v10.84c0-1.101-0.9-2-2-2h-20c-1.1,0-2,0.899-2,2h-0.01V30.8v-6.81
			c0,0.83,0.34,1.58,0.88,2.12c0.55,0.55,1.29,0.88,2.12,0.88c1.66,0,3-1.34,3-3h0.01c0,0.83,0.34,1.58,0.88,2.12
			c0.54,0.55,1.29,0.88,2.12,0.88c1.66,0,3-1.34,3-3c0,0.83,0.34,1.58,0.88,2.12c0.54,0.55,1.3,0.88,2.12,0.88c1.66,0,3-1.34,3-3
			h0.01c0,0.83,0.33,1.58,0.88,2.12c0.54,0.55,1.29,0.88,2.12,0.88C60.625,26.99,61.925,25.74,62.005,24.15z"/>
	</g>
	<g>
		<path fill="#545C66" d="M43.115,21.87c-0.54-0.54-1.29-0.88-2.12-0.88s-1.57,0.34-2.12,0.88c-0.54,0.55-0.88,1.29-0.88,2.12V12
			v-0.01c0-1.101,0.899-2,2-2V9.98h2c1.109,0,2.01,0.899,2.01,2.01v12h-0.01C43.995,23.16,43.665,22.42,43.115,21.87z"/>
	</g>
	<g>
		<polygon fill="#353B44" points="39.005,52.99 41.005,62 35.995,62 35.995,52.99 		"/>
	</g>
	<g>
		<polygon fill="#353B44" points="25.005,2 27.005,11.01 23.005,11.01 21.005,2 		"/>
	</g>
	<g>
		<polygon fill="#434A54" points="21.005,2 23.005,11.01 9.005,11.01 11.005,2 		"/>
	</g>
	<g>
		<polygon fill="#434A54" points="30.005,2 30.005,11.01 27.005,11.01 25.005,2 		"/>
	</g>
	<g>
		<path fill="#545C66" d="M32.005,16.01v8c0-1.1-0.9-2-2-2H9.995c-1.101,0-2,0.9-2,2v3v2V33c0,2.22-1.79,4.01-4,4.01V37
			c-1.11,0-1.99-0.88-2-1.99V35V18.01l4-7h3.01h14h4h3L32.005,16.01z"/>
	</g>
	<g>
		<polygon fill="#353B44" points="11.005,2 9.005,11.01 5.995,11.01 5.995,2 		"/>
	</g>
	<g>
		<path fill="#545C66" d="M13.995,40.01v12c0,1.11-0.891,2.01-2,2.01h-2v-0.01c-1.11,0-2-0.899-2-2V52V40.01
			c0,0.83,0.33,1.57,0.88,2.12c0.54,0.54,1.29,0.88,2.12,0.88s1.58-0.34,2.12-0.88C13.665,41.58,13.995,40.84,13.995,40.01z"/>
	</g>
	<g>
		<path fill="#656D78" d="M10.995,37.01c1.66,0,3,1.34,3,3c0,0.83-0.33,1.57-0.88,2.12c-0.54,0.54-1.29,0.88-2.12,0.88
			s-1.58-0.34-2.12-0.88c-0.55-0.55-0.88-1.29-0.88-2.12s0.33-1.58,0.88-2.12C9.415,37.34,10.165,37.01,10.995,37.01z"/>
	</g>
	<g>
		<path fill="#545C66" d="M26.895,42.13c0.54,0.54,1.29,0.88,2.12,0.88s1.57-0.34,2.12-0.88c0.47-0.479,0.79-1.11,0.86-1.81v5.67
			l0.01,0.01v0.01c-0.01,1.11-0.9,2-2.01,2h-2V48c-1.03,0-1.891-0.78-1.99-1.79v-6.2h0.01C26.015,40.84,26.345,41.58,26.895,42.13z"
			/>
	</g>
	<g>
		<path fill="#545C66" d="M26.005,46.21v5.8h-0.01c0,1.11-0.891,2.01-2,2.01h-2v-0.01c-1.11,0-2-0.899-2-2V40.17
			c0.01-0.05,0.01-0.11,0.01-0.16c0,0.83,0.34,1.57,0.88,2.12c0.54,0.54,1.29,0.88,2.12,0.88s1.58-0.34,2.12-0.88
			c0.54-0.55,0.88-1.29,0.88-2.12V46.21z"/>
	</g>
	<g>
		<path fill="#656D78" d="M31.995,39.7v0.62c-0.07,0.699-0.391,1.33-0.86,1.81c-0.55,0.54-1.29,0.88-2.12,0.88s-1.58-0.34-2.12-0.88
			c-0.55-0.55-0.88-1.29-0.88-2.12s0.33-1.58,0.88-2.12c0.54-0.55,1.29-0.88,2.12-0.88C30.564,37.01,31.845,38.19,31.995,39.7z"/>
	</g>
	<g>
		<path fill="#656D78" d="M23.005,37.01c1.66,0,3,1.34,3,3c0,0.83-0.34,1.57-0.88,2.12c-0.54,0.54-1.29,0.88-2.12,0.88
			s-1.58-0.34-2.12-0.88c-0.54-0.55-0.88-1.29-0.88-2.12s0.34-1.58,0.88-2.12C21.425,37.34,22.175,37.01,23.005,37.01z"/>
	</g>
	<g>
		<path fill="#656D78" d="M19.995,39.86v0.31c-0.03,0.76-0.36,1.45-0.87,1.96c-0.54,0.54-1.3,0.88-2.12,0.88
			c-0.83,0-1.58-0.34-2.12-0.88c-0.54-0.55-0.88-1.29-0.88-2.12s0.34-1.58,0.88-2.12c0.54-0.55,1.29-0.88,2.12-0.88
			C18.604,37.01,19.925,38.27,19.995,39.86z"/>
	</g>
	<g>
		<path fill="#545C66" d="M29.015,37.01c-0.83,0-1.58,0.33-2.12,0.88c-0.55,0.54-0.88,1.29-0.88,2.12h-0.01c0-1.66-1.34-3-3-3
			c-0.83,0-1.58,0.33-2.12,0.88c-0.54,0.54-0.88,1.29-0.88,2.12c0-0.05,0-0.1-0.01-0.149c-0.07-1.591-1.391-2.851-2.99-2.851
			c-0.83,0-1.58,0.33-2.12,0.88c-0.54,0.54-0.88,1.29-0.88,2.12h-0.01c0-1.66-1.34-3-3-3c-0.83,0-1.58,0.33-2.12,0.88
			c-0.55,0.54-0.88,1.29-0.88,2.12V33v-3.99c0,1.101,0.899,2,2,2h20.01c1.03,0,1.89-0.79,1.99-1.8V39.7
			C31.845,38.19,30.564,37.01,29.015,37.01z"/>
	</g>
	<g>
		<path fill="#545C66" d="M19.995,40.17v11.84v4c0,1.11-0.891,2.01-2,2.01h-2v-0.01c-1.11,0-2-0.899-2-2v-4v-12h0.01
			c0,0.83,0.34,1.57,0.88,2.12c0.54,0.54,1.29,0.88,2.12,0.88c0.82,0,1.58-0.34,2.12-0.88C19.635,41.62,19.965,40.93,19.995,40.17z"
			/>
	</g>
	<g>
		<path fill="#656D78" d="M9.995,22.01h20.01c1.1,0,2,0.9,2,2v4.78c-0.01,0.07-0.01,0.13-0.01,0.2V29v0.21
			c-0.101,1.01-0.96,1.8-1.99,1.8H9.995c-1.101,0-2-0.899-2-2v-2v-3C7.995,22.91,8.895,22.01,9.995,22.01z"/>
	</g>
</g>
<g>
	<g>
		<g>
			<path d="M43.996,30.991c-0.553,0-1-0.447-1-1V7.988c0-0.553,0.447-1,1-1s1,0.447,1,1v22.003
				C44.996,30.544,44.549,30.991,43.996,30.991z"/>
		</g>
		<g>
			<path d="M37.994,37.992c-0.553,0-1-0.447-1-1V12.005c0-0.553,0.447-1,1-1s1,0.447,1,1v24.987
				C38.994,37.545,38.547,37.992,37.994,37.992z"/>
		</g>
		<g>
			<path d="M49.996,30.992c-0.553,0-1-0.447-1-1V7.988c0-0.553,0.447-1,1-1s1,0.447,1,1v22.004
				C50.996,30.545,50.549,30.992,49.996,30.992z"/>
		</g>
		<g>
			<path d="M55.998,30.991c-0.553,0-1-0.447-1-1v-18c0-0.553,0.447-1,1-1s1,0.447,1,1v18C56.998,30.544,56.551,30.991,55.998,30.991
				z"/>
		</g>
		<g>
			<path d="M61.998,48.993c-0.553,0-1-0.447-1-1V17.996c0-0.553,0.447-1,1-1s1,0.447,1,1v29.997
				C62.998,48.546,62.551,48.993,61.998,48.993z"/>
		</g>
		<g>
			<path d="M31.992,46.993c-0.553,0-1-0.447-1-1V28.991c0-0.553,0.447-1,1-1s1,0.447,1,1v17.002
				C32.992,46.546,32.545,46.993,31.992,46.993z"/>
		</g>
		<g>
			<path d="M35.993,53.993c-0.348,0-0.685-0.181-0.869-0.504l-4-7c-0.274-0.479-0.107-1.09,0.372-1.364
				c0.479-0.276,1.09-0.107,1.364,0.372l4,7c0.274,0.479,0.107,1.09-0.372,1.364C36.332,53.951,36.161,53.993,35.993,53.993z"/>
		</g>
		<g>
			<path d="M59.998,53.993c-0.124,0-0.25-0.022-0.371-0.071c-0.513-0.205-0.763-0.787-0.558-1.3l2-5
				c0.205-0.515,0.791-0.764,1.3-0.558c0.513,0.205,0.763,0.787,0.558,1.3l-2,5C60.771,53.756,60.395,53.993,59.998,53.993z"/>
		</g>
		<g>
			<g>
				<path d="M55.994,18.996c-0.553,0-1-0.447-1-1c0-1.654,1.346-3,3-3c0.553,0,1,0.447,1,1s-0.447,1-1,1c-0.552,0-1,0.448-1,1
					C56.994,18.549,56.547,18.996,55.994,18.996z"/>
			</g>
			<g>
				<path d="M61.998,18.996c-0.553,0-1-0.447-1-1c0-0.556-0.452-1.008-1.008-1.008c-0.553,0-1-0.447-1-1s0.447-1,1-1
					c1.658,0,3.008,1.35,3.008,3.008C62.998,18.549,62.551,18.996,61.998,18.996z"/>
			</g>
			<g>
				<path d="M59.99,16.988h-1.996c-0.553,0-1-0.447-1-1s0.447-1,1-1h1.996c0.553,0,1,0.447,1,1S60.543,16.988,59.99,16.988z"/>
			</g>
		</g>
		<g>
			<g>
				<path d="M49.992,12.992c-0.553,0-1-0.447-1-1c0-1.654,1.346-3,3-3c0.553,0,1,0.447,1,1s-0.447,1-1,1c-0.552,0-1,0.448-1,1
					C50.992,12.545,50.545,12.992,49.992,12.992z"/>
			</g>
			<g>
				<path d="M55.996,12.992c-0.553,0-1-0.447-1-1c0-0.556-0.452-1.008-1.008-1.008c-0.553,0-1-0.447-1-1s0.447-1,1-1
					c1.658,0,3.008,1.35,3.008,3.008C56.996,12.545,56.549,12.992,55.996,12.992z"/>
			</g>
			<g>
				<path d="M53.988,10.984h-1.996c-0.553,0-1-0.447-1-1s0.447-1,1-1h1.996c0.553,0,1,0.447,1,1S54.541,10.984,53.988,10.984z"/>
			</g>
		</g>
		<g>
			<g>
				<path d="M43.992,8.992c-0.553,0-1-0.447-1-1c0-1.654,1.346-3,3-3c0.553,0,1,0.447,1,1s-0.447,1-1,1c-0.552,0-1,0.448-1,1
					C44.992,8.545,44.545,8.992,43.992,8.992z"/>
			</g>
			<g>
				<path d="M49.996,8.992c-0.553,0-1-0.447-1-1c0-0.556-0.452-1.008-1.008-1.008c-0.553,0-1-0.447-1-1s0.447-1,1-1
					c1.658,0,3.008,1.35,3.008,3.008C50.996,8.545,50.549,8.992,49.996,8.992z"/>
			</g>
			<g>
				<path d="M47.988,6.984h-1.996c-0.553,0-1-0.447-1-1s0.447-1,1-1h1.996c0.553,0,1,0.447,1,1S48.541,6.984,47.988,6.984z"/>
			</g>
		</g>
		<g>
			<g>
				<path d="M37.992,12.992c-0.553,0-1-0.447-1-1c0-1.654,1.346-3,3-3c0.553,0,1,0.447,1,1s-0.447,1-1,1c-0.552,0-1,0.448-1,1
					C38.992,12.545,38.545,12.992,37.992,12.992z"/>
			</g>
			<g>
				<path d="M43.996,12.992c-0.553,0-1-0.447-1-1c0-0.556-0.452-1.008-1.008-1.008c-0.553,0-1-0.447-1-1s0.447-1,1-1
					c1.658,0,3.008,1.35,3.008,3.008C44.996,12.545,44.549,12.992,43.996,12.992z"/>
			</g>
			<g>
				<path d="M41.988,10.984h-1.996c-0.553,0-1-0.447-1-1s0.447-1,1-1h1.996c0.553,0,1,0.447,1,1S42.541,10.984,41.988,10.984z"/>
			</g>
		</g>
		<g>
			<path d="M31.992,29.998c-0.553,0-1-0.447-1-1c0-1.654,1.346-3,3-3c0.553,0,1,0.447,1,1s-0.447,1-1,1c-0.552,0-1,0.448-1,1
				C32.992,29.551,32.545,29.998,31.992,29.998z"/>
		</g>
		<g>
			<path d="M37.996,31.997c-0.553,0-1-0.447-1-1c0-1.658-1.35-3.008-3.008-3.008c-0.553,0-1-0.447-1-1s0.447-1,1-1
				c2.762,0,5.008,2.246,5.008,5.008C38.996,31.55,38.549,31.997,37.996,31.997z"/>
		</g>
		<g>
			<path d="M60,62.998H35.992c-0.553,0-1-0.447-1-1v-9.005c0-0.553,0.447-1,1-1H60c0.553,0,1,0.447,1,1v9.005
				C61,62.551,60.553,62.998,60,62.998z M36.992,60.998H59v-7.005H36.992V60.998z"/>
		</g>
		<g>
			<path d="M54.999,62.998c-0.072,0-0.145-0.008-0.218-0.023c-0.539-0.12-0.879-0.654-0.76-1.193l2-9.005
				c0.12-0.539,0.659-0.871,1.193-0.76c0.539,0.12,0.879,0.654,0.76,1.193l-2,9.005C55.871,62.681,55.457,62.998,54.999,62.998z"/>
		</g>
		<g>
			<path d="M50.999,62.998c-0.072,0-0.145-0.008-0.218-0.023c-0.539-0.12-0.879-0.654-0.76-1.193l2-9.005
				c0.12-0.539,0.656-0.871,1.193-0.76c0.539,0.12,0.879,0.654,0.76,1.193l-2,9.005C51.871,62.681,51.457,62.998,50.999,62.998z"/>
		</g>
		<g>
			<path d="M40.999,62.997c-0.458,0-0.872-0.317-0.976-0.783l-2-9.005c-0.119-0.539,0.221-1.073,0.76-1.193
				c0.537-0.114,1.074,0.221,1.193,0.76l2,9.005c0.119,0.539-0.221,1.073-0.76,1.193C41.144,62.989,41.071,62.997,40.999,62.997z"/>
		</g>
		<g>
			<path d="M60.002,42.991H39.996c-1.654,0-3-1.346-3-3v-5.002c0-1.654,1.346-3,3-3h20.006c1.654,0,3,1.346,3,3v5.002
				C63.002,41.646,61.656,42.991,60.002,42.991z M39.996,33.989c-0.552,0-1,0.448-1,1v5.002c0,0.552,0.448,1,1,1h20.006
				c0.552,0,1-0.448,1-1v-5.002c0-0.552-0.448-1-1-1H39.996z"/>
		</g>
		<g>
			<path d="M40.992,27.993c-2.206,0-4-1.794-4-4s1.794-4,4-4s4,1.794,4,4S43.198,27.993,40.992,27.993z M40.992,21.993
				c-1.103,0-2,0.897-2,2s0.897,2,2,2s2-0.897,2-2S42.095,21.993,40.992,21.993z"/>
		</g>
		<g>
			<path d="M46.998,27.993c-2.206,0-4-1.794-4-4s1.794-4,4-4s4,1.794,4,4S49.204,27.993,46.998,27.993z M46.998,21.993
				c-1.103,0-2,0.897-2,2s0.897,2,2,2s2-0.897,2-2S48.101,21.993,46.998,21.993z"/>
		</g>
		<g>
			<path d="M53.004,27.993c-2.206,0-4-1.794-4-4s1.794-4,4-4s4,1.794,4,4S55.21,27.993,53.004,27.993z M53.004,21.993
				c-1.103,0-2,0.897-2,2s0.897,2,2,2s2-0.897,2-2S54.106,21.993,53.004,21.993z"/>
		</g>
		<g>
			<path d="M59.01,27.993c-2.206,0-4-1.794-4-4s1.794-4,4-4s4,1.794,4,4S61.216,27.993,59.01,27.993z M59.01,21.993
				c-1.103,0-2,0.897-2,2s0.897,2,2,2s2-0.897,2-2S60.112,21.993,59.01,21.993z"/>
		</g>
		<g>
			<path d="M57.998,36.991h-16c-0.553,0-1-0.447-1-1s0.447-1,1-1h16c0.553,0,1,0.447,1,1S58.551,36.991,57.998,36.991z"/>
		</g>
		<g>
			<path d="M57.998,39.991h-16c-0.553,0-1-0.447-1-1s0.447-1,1-1h16c0.553,0,1,0.447,1,1S58.551,39.991,57.998,39.991z"/>
		</g>
	</g>
	<g>
		<g>
			<path d="M13.994,57.012c-0.553,0-1-0.447-1-1V34.009c0-0.553,0.447-1,1-1s1,0.447,1,1v22.003
				C14.994,56.564,14.547,57.012,13.994,57.012z"/>
		</g>
		<g>
			<path d="M7.992,52.995c-0.553,0-1-0.447-1-1V27.008c0-0.553,0.447-1,1-1s1,0.447,1,1v24.987
				C8.992,52.548,8.545,52.995,7.992,52.995z"/>
		</g>
		<g>
			<path d="M19.994,57.012c-0.553,0-1-0.447-1-1V34.008c0-0.553,0.447-1,1-1s1,0.447,1,1v22.004
				C20.994,56.564,20.547,57.012,19.994,57.012z"/>
		</g>
		<g>
			<path d="M25.996,53.009c-0.553,0-1-0.447-1-1v-18c0-0.553,0.447-1,1-1s1,0.447,1,1v18C26.996,52.562,26.549,53.009,25.996,53.009
				z"/>
		</g>
		<g>
			<path d="M31.996,47.004c-0.553,0-1-0.447-1-1V16.007c0-0.553,0.447-1,1-1s1,0.447,1,1v29.997
				C32.996,46.557,32.549,47.004,31.996,47.004z"/>
		</g>
		<g>
			<path d="M1.99,36.009c-0.553,0-1-0.447-1-1V18.007c0-0.553,0.447-1,1-1s1,0.447,1,1v17.002C2.99,35.562,2.543,36.009,1.99,36.009
				z"/>
		</g>
		<g>
			<path d="M1.989,19.007c-0.168,0-0.339-0.042-0.495-0.132c-0.479-0.274-0.646-0.885-0.372-1.364l4-7
				c0.272-0.479,0.884-0.649,1.364-0.372c0.479,0.274,0.646,0.885,0.372,1.364l-4,7C2.674,18.826,2.337,19.007,1.989,19.007z"/>
		</g>
		<g>
			<path d="M31.996,17.007c-0.396,0-0.772-0.237-0.929-0.629l-2-5c-0.205-0.513,0.045-1.095,0.558-1.3
				c0.507-0.204,1.095,0.043,1.3,0.558l2,5c0.205,0.513-0.045,1.095-0.558,1.3C32.246,16.984,32.12,17.007,31.996,17.007z"/>
		</g>
		<g>
			<g>
				<path d="M27.992,49.004c-1.654,0-3-1.346-3-3c0-0.553,0.447-1,1-1s1,0.447,1,1c0,0.552,0.448,1,1,1c0.553,0,1,0.447,1,1
					S28.545,49.004,27.992,49.004z"/>
			</g>
			<g>
				<path d="M29.988,49.012c-0.553,0-1-0.447-1-1s0.447-1,1-1c0.556,0,1.008-0.452,1.008-1.008c0-0.553,0.447-1,1-1s1,0.447,1,1
					C32.996,47.662,31.646,49.012,29.988,49.012z"/>
			</g>
			<g>
				<path d="M29.988,49.012h-1.996c-0.553,0-1-0.447-1-1s0.447-1,1-1h1.996c0.553,0,1,0.447,1,1S30.541,49.012,29.988,49.012z"/>
			</g>
		</g>
		<g>
			<g>
				<path d="M21.99,55.008c-1.654,0-3-1.346-3-3c0-0.553,0.447-1,1-1s1,0.447,1,1c0,0.552,0.448,1,1,1c0.553,0,1,0.447,1,1
					S22.543,55.008,21.99,55.008z"/>
			</g>
			<g>
				<path d="M23.986,55.016c-0.553,0-1-0.447-1-1s0.447-1,1-1c0.556,0,1.008-0.452,1.008-1.008c0-0.553,0.447-1,1-1s1,0.447,1,1
					C26.994,53.666,25.645,55.016,23.986,55.016z"/>
			</g>
			<g>
				<path d="M23.986,55.016H21.99c-0.553,0-1-0.447-1-1s0.447-1,1-1h1.996c0.553,0,1,0.447,1,1S24.539,55.016,23.986,55.016z"/>
			</g>
		</g>
		<g>
			<g>
				<path d="M15.99,59.008c-1.654,0-3-1.346-3-3c0-0.553,0.447-1,1-1s1,0.447,1,1c0,0.552,0.448,1,1,1c0.553,0,1,0.447,1,1
					S16.543,59.008,15.99,59.008z"/>
			</g>
			<g>
				<path d="M17.986,59.016c-0.553,0-1-0.447-1-1s0.447-1,1-1c0.556,0,1.008-0.452,1.008-1.008c0-0.553,0.447-1,1-1s1,0.447,1,1
					C20.994,57.666,19.645,59.016,17.986,59.016z"/>
			</g>
			<g>
				<path d="M17.986,59.016H15.99c-0.553,0-1-0.447-1-1s0.447-1,1-1h1.996c0.553,0,1,0.447,1,1S18.539,59.016,17.986,59.016z"/>
			</g>
		</g>
		<g>
			<g>
				<path d="M9.99,55.008c-1.654,0-3-1.346-3-3c0-0.553,0.447-1,1-1s1,0.447,1,1c0,0.552,0.448,1,1,1c0.553,0,1,0.447,1,1
					S10.543,55.008,9.99,55.008z"/>
			</g>
			<g>
				<path d="M11.986,55.016c-0.553,0-1-0.447-1-1s0.447-1,1-1c0.556,0,1.008-0.452,1.008-1.008c0-0.553,0.447-1,1-1s1,0.447,1,1
					C14.994,53.666,13.645,55.016,11.986,55.016z"/>
			</g>
			<g>
				<path d="M11.986,55.016H9.99c-0.553,0-1-0.447-1-1s0.447-1,1-1h1.996c0.553,0,1,0.447,1,1S12.539,55.016,11.986,55.016z"/>
			</g>
		</g>
		<g>
			<path d="M3.99,38.002c-1.654,0-3-1.346-3-3c0-0.553,0.447-1,1-1s1,0.447,1,1c0,0.552,0.448,1,1,1c0.553,0,1,0.447,1,1
				S4.543,38.002,3.99,38.002z"/>
		</g>
		<g>
			<path d="M3.986,38.011c-0.553,0-1-0.447-1-1s0.447-1,1-1c1.658,0,3.008-1.35,3.008-3.008c0-0.553,0.447-1,1-1s1,0.447,1,1
				C8.994,35.765,6.748,38.011,3.986,38.011z"/>
		</g>
		<g>
			<path d="M29.998,12.007H5.99c-0.553,0-1-0.447-1-1V2.002c0-0.553,0.447-1,1-1h24.008c0.553,0,1,0.447,1,1v9.005
				C30.998,11.56,30.551,12.007,29.998,12.007z M6.99,10.007h22.008V3.002H6.99V10.007z"/>
		</g>
		<g>
			<path d="M26.995,12.007c-0.458,0-0.872-0.317-0.976-0.783l-2-9.005C23.9,1.68,24.24,1.146,24.779,1.025
				c0.539-0.113,1.073,0.221,1.193,0.76l2,9.005c0.119,0.539-0.221,1.073-0.76,1.193C27.14,11.999,27.067,12.007,26.995,12.007z"/>
		</g>
		<g>
			<path d="M22.995,12.007c-0.458,0-0.872-0.317-0.976-0.783l-2-9.005C19.9,1.68,20.24,1.146,20.779,1.025
				c0.54-0.113,1.074,0.221,1.193,0.76l2,9.005c0.119,0.539-0.221,1.073-0.76,1.193C23.14,11.999,23.067,12.007,22.995,12.007z"/>
		</g>
		<g>
			<path d="M8.997,12.008c-0.072,0-0.145-0.008-0.218-0.023C8.24,11.864,7.9,11.33,8.02,10.791l2-9.005
				c0.12-0.539,0.659-0.873,1.193-0.76c0.539,0.12,0.879,0.654,0.76,1.193l-2,9.005C9.869,11.69,9.455,12.008,8.997,12.008z"/>
		</g>
		<g>
			<path d="M30,32.011H9.994c-1.654,0-3-1.346-3-3v-5.002c0-1.654,1.346-3,3-3H30c1.654,0,3,1.346,3,3v5.002
				C33,30.665,31.654,32.011,30,32.011z M9.994,23.009c-0.552,0-1,0.448-1,1v5.002c0,0.552,0.448,1,1,1H30c0.552,0,1-0.448,1-1
				v-5.002c0-0.552-0.448-1-1-1H9.994z"/>
		</g>
		<g>
			<path d="M10.99,44.007c-2.206,0-4-1.794-4-4s1.794-4,4-4s4,1.794,4,4S13.196,44.007,10.99,44.007z M10.99,38.007
				c-1.103,0-2,0.897-2,2s0.897,2,2,2s2-0.897,2-2S12.093,38.007,10.99,38.007z"/>
		</g>
		<g>
			<path d="M16.996,44.007c-2.206,0-4-1.794-4-4s1.794-4,4-4s4,1.794,4,4S19.202,44.007,16.996,44.007z M16.996,38.007
				c-1.103,0-2,0.897-2,2s0.897,2,2,2s2-0.897,2-2S18.099,38.007,16.996,38.007z"/>
		</g>
		<g>
			<path d="M23.002,44.007c-2.206,0-4-1.794-4-4s1.794-4,4-4s4,1.794,4,4S25.208,44.007,23.002,44.007z M23.002,38.007
				c-1.103,0-2,0.897-2,2s0.897,2,2,2s2-0.897,2-2S24.104,38.007,23.002,38.007z"/>
		</g>
		<g>
			<path d="M29.008,44.007c-2.206,0-4-1.794-4-4s1.794-4,4-4s4,1.794,4,4S31.214,44.007,29.008,44.007z M29.008,38.007
				c-1.103,0-2,0.897-2,2s0.897,2,2,2s2-0.897,2-2S30.11,38.007,29.008,38.007z"/>
		</g>
		<g>
			<path d="M27.996,29.009h-16c-0.553,0-1-0.447-1-1s0.447-1,1-1h16c0.553,0,1,0.447,1,1S28.549,29.009,27.996,29.009z"/>
		</g>
		<g>
			<path d="M27.996,26.009h-16c-0.553,0-1-0.447-1-1s0.447-1,1-1h16c0.553,0,1,0.447,1,1S28.549,26.009,27.996,26.009z"/>
		</g>
	</g>
</g>
</svg>
